<svg height="512" viewBox="0 0 512 512" width="512" xmlns="http://www.w3.org/2000/svg"><path d="M74.966 437.013c-99.97-99.97-99.97-262.065 0-362.037 100.002-99.97 262.066-99.97 362.067 0 99.97 99.97 99.97 262.067 0 362.037-100 99.985-262.065 99.985-362.067 0zm316.816-316.786c-75-74.985-196.564-74.985-271.534 0-75 74.985-75 196.55 0 271.535 74.97 74.986 196.533 74.986 271.534 0 74.972-74.987 74.972-196.55 0-271.535zm-203.658 248.91l-45.25-45.266L210.75 256l-67.88-67.876 45.25-45.267 67.88 67.89 67.876-67.89 45.25 45.267L301.25 256l67.88 67.877-45.25 45.267-67.88-67.9-67.876 67.893z"/></svg>