<svg xmlns="http://www.w3.org/2000/svg" width="64" height="64" viewBox="0 0 64 64"><path d="M9.372 54.627C-3.124 42.13-3.124 21.87 9.372 9.373c12.5-12.497 32.757-12.497 45.256 0 12.496 12.496 12.496 32.758 0 45.254-12.5 12.5-32.756 12.5-45.256 0zm39.6-39.598c-9.375-9.38-24.57-9.38-33.94 0-9.374 9.37-9.374 24.56 0 33.94 9.37 9.37 24.565 9.37 33.94 0 9.372-9.38 9.372-24.57 0-33.94zM23.516 46.14l-5.656-5.657L26.344 32l-8.484-8.484 5.656-5.658L32 26.348l8.484-8.486 5.656 5.657L37.657 32l8.484 8.484-5.65 5.657-8.48-8.48-8.48 8.49z"/></svg>